<?xml version="1.0" encoding="UTF-8" standalone="no"?>
<!DOCTYPE svg PUBLIC "-//W3C//DTD SVG 1.1//EN" "http://www.w3.org/Graphics/SVG/1.1/DTD/svg11.dtd">
<svg width="100%" height="100%" viewBox="0 0 10194 10194" version="1.1" xmlns="http://www.w3.org/2000/svg" xmlns:xlink="http://www.w3.org/1999/xlink" xml:space="preserve" xmlns:serif="http://www.serif.com/" style="fill-rule:evenodd;clip-rule:evenodd;stroke-linejoin:round;stroke-miterlimit:2;">
    <g transform="matrix(1,0,0,1,-5318.42,-5319.96)">
        <g transform="matrix(4.16667,0,0,4.16667,0,0)">
            <path d="M2152,1969.5C2031.7,2089.79 1971.43,2248.73 1971.2,2407.92L1971.2,2408.76C1971.43,2567.93 2031.7,2726.88 2152,2847.17L2152.04,2847.19C2204.6,2899.79 2264.45,2940.92 2328.42,2970.61L2557.89,2741.13C2562.52,2736.52 2566.86,2731.71 2571.01,2726.71C2495.74,2722.11 2421.94,2691.31 2364.93,2634.3L2364.89,2634.28C2302.61,2571.98 2271.45,2490.22 2271.45,2408.76L2271.45,2407.92C2271.45,2326.47 2302.61,2244.69 2364.89,2182.4L2876.83,1670.48C2939.11,1608.19 3020.88,1577.01 3102.32,1577.03L3103.18,1577.03C3184.65,1577.01 3266.39,1608.19 3328.68,1670.48L3328.72,1670.51C3390.74,1732.51 3421.75,1814.42 3421.75,1896.44C3421.75,1978.42 3390.74,2060.38 3328.72,2122.39L3096.38,2354.73C3122.15,2430.07 3135.57,2509.88 3135.57,2591.24C3135.57,2649.05 3128.77,2706.09 3115.6,2761.3L3541.61,2335.29C3662.43,2214.5 3722.81,2055.35 3722.81,1896.44C3722.81,1737.47 3662.43,1578.4 3541.61,1457.61L3541.61,1457.59C3421.3,1337.28 3262.36,1277.01 3103.18,1276.81L3102.77,1276.79L3102.32,1276.81C2943.15,1277.01 2784.2,1337.28 2663.89,1457.59L2152,1969.5ZM1457.18,2664.3L1884.42,2237.06C1871.18,2292.24 1864.22,2349.21 1863.7,2406.95L1863.7,2408.76C1863.7,2489.89 1877.01,2569.51 1902.6,2644.67L1670.07,2877.21C1607.79,2939.51 1576.63,3021.27 1576.63,3102.73L1576.63,3103.57C1576.63,3185.04 1607.79,3266.78 1670.07,3329.09L1670.11,3329.1C1732.13,3391.12 1814.06,3422.14 1896.05,3422.14C1978.02,3422.14 2059.97,3391.12 2122,3329.12L2633.89,2817.19C2695.92,2755.18 2726.93,2673.25 2726.97,2591.24C2726.97,2509.24 2695.92,2427.32 2633.89,2365.31L2633.89,2365.29C2576.62,2308.02 2502.93,2277.07 2428.15,2272.45C2432.19,2267.63 2436.45,2262.95 2440.94,2258.44L2670.26,2029.13C2734.34,2058.77 2794.27,2099.85 2846.78,2152.39L2846.83,2152.4C2967.62,2273.21 3027.99,2432.27 3027.99,2591.24C3028.03,2750.15 2967.62,2909.3 2846.83,3030.1L2334.89,3542.01C2214.1,3662.8 2054.96,3723.21 1896.05,3723.21C1737.07,3723.21 1578.01,3662.8 1457.22,3542.01L1457.18,3541.99C1336.88,3421.69 1276.65,3262.76 1276.42,3103.57L1276.42,3102.73C1276.65,2943.54 1336.88,2784.6 1457.18,2664.3Z" style="fill:rgb(34,30,31);"/>
        </g>
    </g>
</svg>
