<?xml version="1.0" encoding="UTF-8" standalone="no"?>
<!DOCTYPE svg PUBLIC "-//W3C//DTD SVG 1.1//EN" "http://www.w3.org/Graphics/SVG/1.1/DTD/svg11.dtd">
<svg width="100%" height="100%" viewBox="0 0 770 770" version="1.1" xmlns="http://www.w3.org/2000/svg" xmlns:xlink="http://www.w3.org/1999/xlink" xml:space="preserve" xmlns:serif="http://www.serif.com/" style="fill-rule:evenodd;clip-rule:evenodd;stroke-linejoin:round;stroke-miterlimit:2;">
    <g transform="matrix(1,0,0,1,-155.42,-155.42)">
        <g transform="matrix(1.07582,0,0,1.07582,-24.627,63.8352)">
            <path id="f_border" d="M524.836,85.131C722.132,85.131 882.312,245.311 882.312,442.608C882.312,639.904 722.132,800.084 524.836,800.084C327.539,800.084 167.359,639.904 167.359,442.608C167.359,245.311 327.539,85.131 524.836,85.131ZM524.836,105.63C338.577,105.63 187.359,256.625 187.359,442.608C187.359,628.591 338.577,779.585 524.836,779.585C711.094,779.585 862.312,628.591 862.312,442.608C862.312,256.625 711.094,105.63 524.836,105.63Z" style="fill:rgb(153,103,247);"/>
        </g>
        <g transform="matrix(1,0,0,1,14.0411,97.3924)">
            <path id="c_outer_mask" d="M288.313,465.839C281.473,441.398 276.032,408.775 275.949,367.415C275.431,352.948 275.949,322.391 275.949,322.391C275.949,322.391 276.047,320.414 276.266,316.991C495.123,411.687 741.875,331.909 771.717,318.534C771.975,322.654 772.207,326.935 772.408,331.384C772.055,353.147 772.642,387.018 772.642,387.018C772.642,387.018 772.491,426.048 760.504,465.839L288.313,465.839ZM280.866,270.187C283.504,251.017 287.383,231.491 292.915,221.168C292.915,221.168 319.473,159.437 495.804,143.436C546.446,141.79 566.161,142.263 566.161,142.263C566.161,142.263 704.947,150.201 748.583,211.361C750.977,216.89 756.477,225.999 761.685,246.443C555.51,313.325 318.494,276.675 280.866,270.187Z" style="fill:rgb(153,103,247);"/>
        </g>
        <g transform="matrix(1,0,0,1,14.0411,97.3924)">
            <path id="inner_mask" d="M283.711,319.822C283.711,319.822 483.265,415.933 762.033,322.636C758.996,330.427 742.379,443.58 540,464.218C505.811,464.218 505.811,464.72 505.811,464.72C505.811,464.72 322.437,466.239 283.711,319.822Z" style="fill:rgb(176,90,215);"/>
        </g>
        <g transform="matrix(1,0,0,1,14.0411,97.3924)">
            <path id="face" d="M335.218,338.617C335.218,338.617 491.23,400.401 706.728,339.775C708.693,344.99 707.931,412.368 674.035,427.411C640.139,442.454 615.981,458.619 527.995,463.853C502.508,463.853 502.508,463.822 502.508,463.822C502.508,463.822 406.427,461.084 354.138,416.873C348.083,409.043 330.144,395.243 335.218,338.617Z" style="fill:white;"/>
        </g>
        <g transform="matrix(1,0,0,1,14.0411,97.3924)">
            <path id="cr_hand" d="M753.71,590.986C766.28,595.852 774.625,608.633 773.278,622.704L770.86,647.973C769.677,660.338 758.858,669.475 746.547,668.666L753.71,590.986Z" style="fill:rgb(153,103,247);"/>
        </g>
        <g transform="matrix(1,0,0,1,14.0411,97.3924)">
            <path id="cl_hand" d="M295.962,590.986L303.125,668.666C290.813,669.475 279.994,660.338 278.811,647.973L276.393,622.704C275.046,608.633 283.392,595.852 295.962,590.986Z" style="fill:rgb(153,103,247);"/>
        </g>
        <g transform="matrix(1.28518,0,0,1.29523,22.2653,-65.0372)">
            <ellipse id="r_eye" cx="464.691" cy="438.697" rx="26.486" ry="33.053" style="fill:rgb(27,29,41);"/>
        </g>
        <g transform="matrix(0.932389,0,0,0.979317,58.4589,116.274)">
            <ellipse id="r_pupil" cx="598.009" cy="395.074" rx="14.21" ry="17.73" style="fill:white;"/>
        </g>
        <g transform="matrix(-1.28518,0,0,1.29523,1046.57,-65.0372)">
            <ellipse id="l_eye" cx="464.691" cy="438.697" rx="26.486" ry="33.053" style="fill:rgb(27,29,41);"/>
        </g>
        <g transform="matrix(-0.932389,0,0,0.979317,1012.38,116.274)">
            <ellipse id="l_pupil" cx="598.009" cy="395.074" rx="14.21" ry="17.73" style="fill:white;"/>
        </g>
        <g transform="matrix(-1.02948,-1.26076e-16,1.22465e-16,-1,866.018,1350.16)">
            <path id="laptop" d="M551.3,786.927L84.243,786.927L106.361,540L529.183,540L551.3,786.927Z" style="fill:rgb(229,229,229);"/>
        </g>
    </g>
</svg>
